<?xml version="1.0" standalone="no"?>
<!DOCTYPE svg PUBLIC "-//W3C//DTD SVG 20010904//EN"
 "http://www.w3.org/TR/2001/REC-SVG-20010904/DTD/svg10.dtd">
<svg version="1.0" xmlns="http://www.w3.org/2000/svg"
 width="512.000000pt" height="512.000000pt" viewBox="0 0 512.000000 512.000000"
 preserveAspectRatio="xMidYMid meet">

<g transform="translate(0.000000,512.000000) scale(0.100000,-0.100000)"
fill="#FFD400" stroke="none">
<path d="M2795 5114 c-171 -36 -338 -119 -478 -239 -350 -299 -396 -792 -132
-1435 24 -60 60 -141 80 -181 20 -39 33 -75 28 -79 -14 -13 -201 -60 -281 -71
-142 -20 -296 9 -463 87 -61 29 -98 52 -95 60 50 130 70 317 46 436 -24 123
-120 287 -190 323 -18 9 -40 13 -55 9 -34 -8 -137 -75 -204 -132 l-54 -46 -15
24 c-29 46 -138 145 -202 182 -69 40 -115 54 -153 44 -52 -13 -165 -216 -192
-346 -28 -134 -14 -304 37 -447 l22 -62 -29 -22 c-58 -44 -171 -165 -214 -229
-92 -140 -218 -433 -242 -563 -36 -195 74 -341 321 -422 69 -23 192 -24 279
-1 35 9 136 49 225 88 200 89 248 96 314 49 50 -37 53 -60 17 -114 -55 -79
-142 -113 -345 -132 -151 -14 -185 -22 -255 -62 -177 -99 -244 -358 -145 -560
66 -134 193 -194 345 -163 101 20 157 78 169 172 l7 50 42 -4 c23 -3 99 -26
168 -51 69 -25 156 -51 194 -58 65 -11 227 -8 287 7 24 5 28 3 33 -22 14 -63
61 -182 97 -245 21 -37 83 -117 137 -178 105 -118 133 -163 112 -184 -13 -13
-105 -12 -241 3 -250 29 -411 -9 -519 -119 -83 -85 -131 -217 -131 -363 0
-128 -53 -118 626 -118 407 0 580 3 598 11 46 22 51 93 8 125 -13 11 -127 13
-550 14 l-532 0 6 43 c34 220 183 297 494 256 100 -13 229 -13 278 0 114 31
155 138 98 256 -15 29 -71 103 -126 165 -147 166 -177 229 -200 416 -25 209
38 418 181 596 44 55 85 95 217 207 39 35 42 72 7 106 -32 33 -62 31 -121 -7
-129 -85 -291 -284 -362 -446 -36 -81 -72 -217 -72 -272 0 -67 -8 -77 -69 -94
-71 -20 -186 -20 -266 -1 -33 7 -109 33 -170 56 -182 69 -298 65 -350 -14 -9
-14 -18 -48 -22 -76 -8 -69 -20 -83 -80 -88 -70 -7 -122 22 -159 91 -25 44
-29 62 -29 131 0 70 4 87 30 134 53 96 112 125 281 136 232 16 377 80 456 204
15 25 40 83 54 130 41 134 87 216 184 327 55 63 63 96 30 132 -14 14 -33 22
-54 22 -29 0 -43 -10 -98 -69 -34 -37 -85 -105 -111 -150 -48 -80 -59 -91 -73
-70 -13 22 -97 49 -153 49 -74 0 -135 -19 -296 -90 -161 -72 -231 -93 -315
-92 -107 1 -227 57 -284 135 -33 45 -28 150 13 252 64 159 163 351 217 422 83
108 204 203 327 257 l57 26 0 -49 c0 -59 16 -108 40 -121 30 -16 68 -12 90 10
17 17 20 33 20 121 0 296 94 513 279 641 48 34 42 36 86 -37 66 -110 73 -297
16 -465 -18 -52 -52 -132 -77 -177 -50 -92 -53 -109 -23 -147 43 -54 112 -25
148 63 8 17 18 31 22 31 5 0 37 -14 70 -30 158 -80 291 -113 454 -113 140 -1
166 4 411 74 313 88 474 91 719 13 511 -162 847 -605 896 -1182 25 -287 -41
-578 -175 -781 -59 -88 -184 -206 -279 -263 -41 -24 -146 -73 -233 -108 -182
-73 -256 -116 -279 -161 -15 -27 -16 -52 -10 -173 7 -153 1 -186 -37 -207 -14
-7 -78 -14 -158 -17 -119 -4 -138 -7 -157 -25 -33 -30 -31 -79 5 -107 26 -21
34 -22 157 -17 166 7 226 25 281 82 56 58 69 113 60 263 l-6 114 27 -7 c439
-111 848 -75 1173 103 434 237 706 637 790 1162 18 109 23 328 11 443 -47 464
-234 856 -553 1162 -130 125 -258 216 -415 297 l-122 62 -35 -17 c-43 -20 -56
-58 -35 -96 9 -17 49 -44 109 -74 544 -277 881 -813 907 -1442 23 -547 -209
-1030 -622 -1300 -209 -137 -406 -201 -655 -212 -128 -5 -327 9 -358 26 -7 4
18 19 66 39 263 107 488 324 588 565 76 184 107 351 107 577 0 392 -119 725
-360 1011 -236 281 -596 464 -956 485 -91 6 -242 -5 -305 -22 -20 -6 -27 3
-72 99 -267 566 -308 970 -129 1269 107 178 342 337 552 373 l38 6 -29 -58
c-46 -92 -57 -147 -56 -273 1 -96 5 -128 27 -195 96 -288 350 -543 718 -723
151 -74 182 -79 219 -42 27 27 26 71 -2 97 -13 11 -75 45 -138 76 -538 258
-799 681 -625 1011 44 82 53 132 30 179 -28 60 -118 90 -210 71z m-2082 -1195
c48 -25 101 -75 147 -137 l47 -66 -30 -65 c-16 -36 -40 -108 -53 -160 -13 -52
-25 -95 -27 -97 -1 -1 -41 -17 -88 -36 l-87 -35 -23 76 c-20 62 -24 98 -24
196 0 133 14 193 65 283 32 55 39 59 73 41z"/>
<path d="M618 2817 c-102 -84 -7 -234 116 -183 44 18 71 71 61 122 -14 75
-117 111 -177 61z"/>
<path d="M340 1026 c-41 -8 -97 -22 -124 -31 -182 -63 -248 -204 -197 -418 41
-170 112 -306 219 -420 147 -155 300 -193 460 -115 204 101 393 440 380 682
-5 95 -27 145 -87 199 -52 47 -86 64 -179 88 -100 27 -361 35 -472 15z m375
-146 c132 -20 215 -78 215 -152 l0 -28 -390 0 c-385 0 -390 0 -390 20 0 64 52
118 135 141 105 29 300 37 430 19z m185 -342 c0 -6 -18 -49 -40 -94 -84 -175
-214 -293 -321 -294 -99 0 -228 118 -310 285 -27 55 -49 103 -49 107 0 5 162
8 360 8 269 0 360 -3 360 -12z"/>
</g>
</svg>
