<svg width="240" height="244" viewBox="0 0 240 244" fill="none" xmlns="http://www.w3.org/2000/svg">
<path d="M150.744 43.4181C149.339 42.8646 147.911 42.3527 146.47 41.8706C144.905 41.3528 143.292 42.5194 143.292 44.1621V48.1737C143.292 49.507 142.209 50.5902 140.875 50.5902H123.145C121.811 50.5902 120.728 51.6735 120.728 53.0067V190.486C120.728 191.819 121.811 192.902 123.145 192.902H140.875C142.209 192.902 143.292 193.985 143.292 195.319V199.425C143.292 201.074 144.905 202.241 146.47 201.717C147.911 201.241 149.339 200.723 150.744 200.169C151.672 199.806 152.285 198.914 152.285 197.914V122.228L152.029 122.097L152.285 121.615V45.662C152.285 44.668 151.672 43.7752 150.744 43.4121" fill="#FFD400"/>
<path d="M170.88 112.181C169.552 114.693 169.433 117.675 170.558 120.288L188.902 163.059C189.688 164.892 192.235 165.041 193.223 163.309C200.181 151.06 204.151 136.894 204.151 121.8C204.151 106.705 199.907 91.5993 192.515 79.0764C191.551 77.4455 189.176 77.4932 188.295 79.1716L170.886 112.187L170.88 112.181Z" fill="#FFD400"/>
<path d="M89.1827 200.169C94.4918 202.259 100.069 203.824 105.848 204.8C107.33 205.05 108.681 203.925 108.681 202.419V41.1742C108.681 39.6743 107.33 38.5434 105.848 38.7934C100.075 39.7695 94.4978 41.3349 89.1827 43.424C88.2542 43.7871 87.6411 44.6799 87.6411 45.6798V197.92C87.6411 198.914 88.2542 199.806 89.1827 200.169Z" fill="#FFD400"/>
<path d="M164.327 89.0282C164.327 91.5458 167.701 92.385 168.88 90.153L181.326 66.5535C181.808 65.6369 181.653 64.506 180.939 63.756C177.052 59.673 172.761 55.9827 168.13 52.7449C166.529 51.6259 164.333 52.7746 164.333 54.7269V89.0282H164.327Z" fill="#FFD400"/>
<path d="M71.0469 95.5039C72.2254 97.7359 75.5942 96.8966 75.5942 94.379V54.7328C75.5942 52.7806 73.3979 51.6319 71.7968 52.7508C66.4162 56.5065 61.4999 60.8812 57.1431 65.7618C56.4705 66.5177 56.3336 67.6069 56.8038 68.5057L71.0409 95.5098L71.0469 95.5039Z" fill="#FFD400"/>
<path d="M168.957 147.125C167.921 144.715 164.32 145.453 164.32 148.078V188.867C164.32 190.819 166.523 191.968 168.124 190.849C172.885 187.521 177.284 183.718 181.254 179.504C181.914 178.802 182.099 177.778 181.718 176.891L168.957 147.131V147.125Z" fill="#FFD400"/>
<path d="M75.6 132.013C75.6 130.662 75.2726 129.335 74.6417 128.139L50.1791 81.7429C49.2803 80.0347 46.84 80.0168 45.9175 81.7131C39.4536 93.629 35.7812 107.283 35.7812 121.794C35.7812 150.375 50.0243 175.623 71.7967 190.843C73.3978 191.962 75.6 190.819 75.6 188.861V132.013Z" fill="#FFD400"/>
<path d="M14.6521 147.881L22.0802 145.846L22.604 147.762L15.1818 149.798L6.09317 158.047L5.52773 155.976L12.9737 149.369L3.21836 147.542L2.64697 145.471L14.6521 147.881Z" fill="#FFD400"/>
<path d="M16.9318 123.681C18.2829 124.829 19.0983 126.418 19.2471 128.275C19.3959 130.127 18.8483 131.829 17.6996 133.18C16.0925 135.067 14.2653 135.215 10.3251 135.537C6.38486 135.858 4.55761 136.001 2.67084 134.394C1.31378 133.245 0.504306 131.656 0.355506 129.799C0.206707 127.948 0.754293 126.246 1.90302 124.895C3.51006 123.008 5.33731 122.859 9.27752 122.538C13.2177 122.222 15.045 122.073 16.9318 123.681ZM3.20055 126.341C2.43275 127.216 2.02802 128.43 2.1292 129.656C2.23039 130.882 2.81962 132.019 3.71837 132.757C5.0159 133.835 6.27773 133.864 10.1644 133.549C14.051 133.233 15.295 133.001 16.402 131.734C17.1698 130.859 17.5746 129.644 17.4734 128.418C17.3722 127.192 16.783 126.055 15.8842 125.317C14.5867 124.24 13.3249 124.21 9.43823 124.526C5.55159 124.841 4.30762 125.073 3.20055 126.341Z" fill="#FFD400"/>
<path d="M20.1218 102.652L11.3903 105.843L10.8368 110.283L19.0445 111.3L18.8005 113.277L0.301758 110.979L1.18266 103.89C1.58144 100.67 3.81343 98.6525 7.00369 99.0453C9.70589 99.3786 11.2713 101.236 11.4677 103.688L20.4016 100.337L20.1159 102.646L20.1218 102.652ZM2.93254 104.295L2.31949 109.229L9.09878 110.068L9.71184 105.134C9.97967 102.98 9.05117 101.307 6.79537 101.027C4.53362 100.748 3.20038 102.14 2.93254 104.295Z" fill="#FFD400"/>
<path d="M26.0975 81.6596L14.8662 83.8142L18.0505 89.0579L22.9787 90.7482L22.33 92.629L4.7002 86.5818L5.34896 84.6951L15.4733 88.171L8.17019 76.4754L8.9618 74.1779L13.8662 82.0583L26.8594 79.4335L26.0975 81.6596Z" fill="#FFD400"/>
<path d="M53.6734 43.7454C52.2925 44.9477 50.5843 45.5429 48.8106 45.4179C46.3346 45.2513 45.1323 43.8704 42.5313 40.8944C39.9303 37.9184 38.7279 36.5376 38.8946 34.0616C39.0136 32.2879 39.8291 30.6749 41.2099 29.4666C43.7336 27.2644 46.9536 27.1632 49.7332 29.3952L48.1976 30.7404C46.3227 29.3535 44.1383 29.2762 42.3884 30.8118C41.4599 31.6212 40.8826 32.7521 40.823 33.9128C40.7278 35.5972 41.4718 36.6447 44.0371 39.585C46.6024 42.5253 47.5428 43.4062 49.2273 43.5371C50.3879 43.6323 51.5842 43.2157 52.5127 42.4062C54.2686 40.8706 54.5305 38.6624 53.4055 36.6209L54.9054 35.3115C56.7565 38.347 56.1911 41.5611 53.6853 43.7454" fill="#FFD400"/>
<path d="M65.2676 34.7104L55.9468 18.5686L57.6729 17.5746L66.1009 32.1749L74.3563 27.4073L75.2431 28.9489L65.2676 34.7104Z" fill="#FFD400"/>
<path d="M92.2779 22.4851L89.4983 18.9853L81.8024 21.634L81.7607 26.1039L79.7549 26.7943L80.1775 6.93852L81.7607 6.39093L94.2837 21.7947L92.2779 22.4851ZM81.9214 9.35502L81.8083 19.8007L88.3912 17.533L81.9214 9.34906V9.35502Z" fill="#FFD400"/>
<path d="M111.616 19.0328L106.348 11.3726L101.908 11.95L102.973 20.1577L100.997 20.4137L98.6045 1.92683L105.693 1.01024C108.913 0.593605 111.425 2.24824 111.836 5.44446C112.187 8.14665 110.776 10.1227 108.455 10.9262L113.931 18.7471L111.621 19.0447L111.616 19.0328ZM105.735 2.78988L100.801 3.42675L101.676 10.206L106.61 9.56917C108.765 9.28943 110.151 7.97404 109.86 5.71824C109.568 3.46244 107.89 2.51609 105.735 2.79584" fill="#FFD400"/>
<path d="M121.913 18.6995L123.198 0.0996094L134.745 0.90313L134.62 2.67683L125.061 2.01615L124.609 8.56928L132.757 9.13473L132.632 10.9144L124.484 10.3489L124.02 17.0568L133.578 17.7234L133.453 19.4971L121.913 18.6995Z" fill="#FFD400"/>
<path d="M152.72 24.0979L147.328 6.99792L143.209 21.366L141.298 20.8184L146.429 2.90295L148.244 3.42077L153.655 20.4672L157.756 6.14677L159.672 6.69436L154.536 24.6158L152.72 24.0979Z" fill="#FFD400"/>
<path d="M168.011 31.0975C166.398 30.2286 165.249 28.8358 164.737 27.1276C164.023 24.7527 164.898 23.1398 166.773 19.6578C168.648 16.1759 169.517 14.5689 171.897 13.8547C173.6 13.3487 175.397 13.5392 177.01 14.4142C179.962 16.0033 181.177 18.9853 180.069 22.366L178.272 21.3958C178.915 19.1519 178.218 17.0866 176.165 15.9795C175.082 15.3962 173.82 15.2534 172.713 15.6045C171.106 16.1045 170.38 17.1699 168.529 20.6042C166.677 24.0385 166.183 25.2289 166.648 26.8478C166.963 27.9728 167.779 28.9429 168.862 29.5262C170.915 30.6333 173.07 30.1036 174.594 28.3358L176.344 29.2822C174.147 32.0856 170.945 32.6748 168.017 31.0975" fill="#FFD400"/>
<path d="M180.54 38.7696L192.432 24.4194L201.342 31.8058L200.205 33.1748L192.83 27.0621L188.634 32.1153L194.92 37.3293L193.789 38.6982L187.497 33.4902L183.206 38.6685L190.581 44.7811L189.444 46.1501L180.54 38.7696Z" fill="#FFD400"/>
<path d="M216.716 89.6709L223.989 80.8501L218.198 78.8383L213.323 80.6834L212.621 78.8205L230.054 72.2316L230.756 74.0946L220.739 77.8801L233.833 82.225L234.691 84.5046L225.882 81.5584L217.549 91.8732L216.716 89.6709Z" fill="#FFD400"/>
<path d="M219.043 98.6287L237.441 95.6527L239.292 107.075L237.536 107.36L236 97.8966L229.512 98.9501L230.822 107.015L229.066 107.295L227.757 99.2358L221.114 100.313L222.65 109.771L220.888 110.056L219.043 98.6287Z" fill="#FFD400"/>
<path d="M220.817 129.865L236.215 120.687L221.287 119.978L221.382 117.99L240 118.871L239.911 120.758L224.561 129.936L239.441 130.638L239.345 132.626L220.728 131.745L220.817 129.865Z" fill="#FFD400"/>
<path d="M234.108 150.31L217.775 146.132L218.269 144.203L234.602 148.381L235.935 143.156L237.661 143.596L234.494 155.976L232.768 155.536L234.108 150.31Z" fill="#FFD400"/>
<path d="M40.7217 213.109L52.709 198.83L54.2327 200.11L43.3941 213.026L50.6912 219.15L49.5425 220.513L40.7217 213.109Z" fill="#FFD400"/>
<path d="M67.6483 231.584L68.3982 227.174L61.2856 223.21L57.9287 226.162L56.0776 225.126L71.1481 212.186L72.6122 213.002L69.4994 232.608L67.6483 231.572V231.584ZM70.5112 215.109L62.6546 221.995L68.7375 225.388L70.5112 215.109Z" fill="#FFD400"/>
<path d="M90.2422 240.006L85.1652 222.817L80.7845 237.107L78.8799 236.524L84.3438 218.704L86.1413 219.257L91.2422 236.399L95.6049 222.156L97.5096 222.739L92.0457 240.56L90.2422 240.006Z" fill="#FFD400"/>
<path d="M104.36 242.774L105.997 224.21L117.526 225.227L117.365 227.001L107.824 226.156L107.247 232.703L115.383 233.423L115.223 235.191L107.092 234.477L106.497 241.179L116.038 242.018L115.883 243.792L104.36 242.774Z" fill="#FFD400"/>
<path d="M141.638 241.845L139.798 242.095L133.716 227.852L131.597 243.19L129.752 243.44L122.562 225.596L124.663 225.311L130.263 239.726L132.341 224.287L134.108 224.049L140.173 238.399L141.786 223.019L143.887 222.739L141.638 241.845Z" fill="#FFD400"/>
<path d="M166.213 234.387L163.344 230.959L155.714 233.798L155.785 238.268L153.797 239.006L153.72 219.144L155.291 218.561L168.201 233.643L166.213 234.381V234.387ZM155.523 221.519L155.672 231.965L162.201 229.536L155.529 221.519H155.523Z" fill="#FFD400"/>
<path d="M176.48 220.365L180.385 227.001L178.671 228.007L174.766 221.376L164.434 214.758L166.285 213.669L174.606 219.133L173.82 209.234L175.671 208.145L176.48 220.365Z" fill="#FFD400"/>
<path d="M196.646 215.448C194.521 217.275 192.676 217.936 190.2 217.758L190.342 215.835C192.521 215.996 193.937 215.43 195.521 214.067C197.586 212.288 198.014 210.222 196.598 208.58C195.967 207.848 195.199 207.401 194.402 207.395C193.604 207.395 193.146 207.58 191.973 208.312L190.104 209.472C188.842 210.252 187.658 210.645 186.587 210.639C185.325 210.621 184.218 210.056 183.242 208.925C181.17 206.526 181.533 203.449 184.325 201.044C186.128 199.491 187.712 198.92 189.86 198.967L189.723 200.777C188.17 200.735 186.878 201.122 185.39 202.407C183.504 204.032 183.319 206.02 184.67 207.592C185.271 208.282 185.944 208.669 186.706 208.669C187.468 208.669 188.438 208.312 189.277 207.8L191.027 206.705C192.527 205.758 193.42 205.473 194.461 205.473C195.8 205.461 197.05 206.074 198.062 207.24C200.199 209.722 199.574 212.925 196.64 215.454" fill="#FFD400"/>
<path d="M31.8652 58.9052C31.8652 60.9467 30.2106 62.6073 28.1631 62.6073C26.1156 62.6073 24.4609 60.9527 24.4609 58.9052C24.4609 56.8577 26.1156 55.2031 28.1631 55.2031C30.2106 55.2031 31.8652 56.8577 31.8652 58.9052Z" fill="#FFD400"/>
<path d="M211.543 58.9052C211.543 60.9467 209.889 62.6073 207.841 62.6073C205.794 62.6073 204.139 60.9527 204.139 58.9052C204.139 56.8577 205.794 55.2031 207.841 55.2031C209.889 55.2031 211.543 56.8577 211.543 58.9052Z" fill="#FFD400"/>
<path d="M31.8652 181.439C31.8652 183.48 30.2106 185.141 28.1631 185.141C26.1156 185.141 24.4609 183.486 24.4609 181.439C24.4609 179.391 26.1156 177.736 28.1631 177.736C30.2106 177.736 31.8652 179.391 31.8652 181.439Z" fill="#FFD400"/>
<path d="M211.543 181.439C211.543 183.48 209.889 185.141 207.841 185.141C205.794 185.141 204.139 183.486 204.139 181.439C204.139 179.391 205.794 177.736 207.841 177.736C209.889 177.736 211.543 179.391 211.543 181.439Z" fill="#FFD400"/>
</svg>
