<?xml version="1.0" encoding="utf-8"?><svg xml:space="preserve" viewBox="0 0 100 100" y="0" x="0" xmlns="http://www.w3.org/2000/svg" id="圖層_1" version="1.1" width="200px" height="200px" xmlns:xlink="http://www.w3.org/1999/xlink" style="width:100%;height:100%;background-size:initial;background-repeat-y:initial;background-repeat-x:initial;background-position-y:initial;background-position-x:initial;background-origin:initial;background-color:initial;background-clip:initial;background-attachment:initial;animation-play-state:paused" ><g class="ldl-scale" style="transform-origin:50% 50%;transform:rotate(0deg) scale(0.8, 0.8);animation-play-state:paused" ><circle fill="#333" r="40" cy="50" cx="50" style="fill:rgb(50, 45, 49);animation-play-state:paused" ></circle>
<path fill="#fff" d="M65.014 46.53h-1.188v-4.704C63.826 34.202 57.624 28 50 28s-13.826 6.202-13.826 13.826v4.704h-1.188a3.567 3.567 0 0 0-3.563 3.563v18.343a3.567 3.567 0 0 0 3.563 3.563h30.028a3.567 3.567 0 0 0 3.563-3.563V50.093a3.567 3.567 0 0 0-3.563-3.563zM53.122 64.138c.132.788-.43 1.512-1.174 1.512h-3.897c-.743 0-1.305-.724-1.174-1.512l1.311-5.065a3.415 3.415 0 0 1-1.61-2.899 3.421 3.421 0 0 1 6.842 0 3.415 3.415 0 0 1-1.61 2.899l1.312 5.065zm4.147-17.608H42.73v-4.704c0-4.008 3.261-7.269 7.269-7.269s7.269 3.261 7.269 7.269v4.704z" style="fill:rgb(255, 255, 255);animation-play-state:paused" ></path>
<metadata xmlns:d="https://loading.io/stock/" style="animation-play-state:paused" ><d:name style="animation-play-state:paused" >lock</d:name>


<d:tags style="animation-play-state:paused" >lock,security,secret,protect,guard,safe,privacy,key,door,gate</d:tags>


<d:license style="animation-play-state:paused" >by</d:license>


<d:slug style="animation-play-state:paused" >txkneg</d:slug></metadata></g><!-- generated by https://loading.io/ --></svg>