<?xml version="1.0" encoding="utf-8"?><svg xml:space="preserve" viewBox="0 0 100 100" y="0" x="0" xmlns="http://www.w3.org/2000/svg" id="圖層_1" version="1.1" width="703px" height="703px" xmlns:xlink="http://www.w3.org/1999/xlink" style="width:100%;height:100%;background-size:initial;background-repeat-y:initial;background-repeat-x:initial;background-position-y:initial;background-position-x:initial;background-origin:initial;background-color:initial;background-clip:initial;background-attachment:initial;animation-play-state:paused" ><g class="ldl-scale" style="transform-origin:50% 50%;transform:rotate(0deg) scale(0.8, 0.8);animation-play-state:paused" ><path fill="#333" d="M71.956 92.5H28.044a2.923 2.923 0 0 1-2.923-2.923V9.961A2.461 2.461 0 0 1 27.582 7.5H72.42a2.461 2.461 0 0 1 2.461 2.461v79.616a2.925 2.925 0 0 1-2.925 2.923z" style="fill:rgb(50, 45, 49);animation-play-state:paused" ></path>
<path fill="#e0e0e0" d="M71.5 77h-43V14.045A3.045 3.045 0 0 1 31.545 11h36.91a3.045 3.045 0 0 1 3.045 3.045V77z" style="fill:rgb(255, 212, 0);animation-play-state:paused" ></path>
<circle fill="#e0e0e0" r="4.5" cy="84.7" cx="50" style="fill:rgb(255, 212, 0);animation-play-state:paused" ></circle>
<metadata xmlns:d="https://loading.io/stock/" style="animation-play-state:paused" ><d:name style="animation-play-state:paused" >cellular phone</d:name>
<d:tags style="animation-play-state:paused" >mobile,handheld,apple,iphone,ios,android,cellular phone,communication</d:tags>
<d:license style="animation-play-state:paused" >by</d:license>
<d:slug style="animation-play-state:paused" >nmrv91</d:slug></metadata></g><!-- generated by https://loading.io/ --></svg>